<?xml version="1.0" encoding="UTF-8" standalone="no"?>
<svg width="97px" height="102px" viewBox="0 0 97 102" version="1.1" xmlns="http://www.w3.org/2000/svg" xmlns:xlink="http://www.w3.org/1999/xlink">
    <!-- Generator: Sketch 47.1 (45422) - http://www.bohemiancoding.com/sketch -->
    <title>Save icon</title>
    <desc>Created with Sketch.</desc>
    <defs></defs>
    <g id="Homepage-hybrid" stroke="none" stroke-width="1" fill="none" fill-rule="evenodd">
        <g id="Pricing-List-2-Copy-2" transform="translate(-1132.000000, -1100.000000)">
            <g id="Group" transform="translate(1133.000000, 1097.000000)">
                <g id="Save-icon" transform="translate(0.000000, 5.000000)">
                    <path d="M93.6850017,10.29637 C93.6850017,15.9818138 78.7262701,20.5925321 60.2757195,20.5925321 C41.8251688,20.5925321 26.8664373,15.9818138 26.8664373,10.29637 C26.8664373,4.61092614 41.8251688,0.000207877288 60.2757195,0.000207877288 C78.7262701,0.000207877288 93.6850017,4.61092614 93.6850017,10.29637 Z" id="Stroke-1" stroke="#15537D" stroke-width="3"></path>
                    <path d="M93.6850017,22.9637883 C93.6850017,28.6513109 78.7262701,33.2620292 60.2757195,33.2620292 C41.8251688,33.2620292 26.8664373,28.6513109 26.8664373,22.9637883" id="Stroke-3" stroke="#15537D" stroke-width="3"></path>
                    <path d="M93.6850017,35.3958895 C93.6850017,41.0834122 78.7262701,45.6941304 60.2757195,45.6941304 C58.7075609,45.6941304 57.1650775,45.66087 55.6541943,45.5964281" id="Stroke-5" stroke="#15537D" stroke-width="3"></path>
                    <path d="M93.6850017,47.8279908 C93.6850017,53.5155134 78.7262701,58.1262316 60.2757195,58.1262316" id="Stroke-7" stroke="#15537D" stroke-width="3"></path>
                    <path d="M62.2798445,70.5481469 C62.7479221,70.5481469 61.2118746,70.5543832 61.6740271,70.5481469 C79.4767742,70.3215607 93.6850017,65.8043872 93.6850017,60.2602999 L93.6850017,11.3696404" id="Stroke-9" stroke="#15537D" stroke-width="3"></path>
                    <path d="M26.6443583,11.370264 L26.6443583,33.7544905" id="Stroke-11" stroke="#15537D" stroke-width="3"></path>
                    <path d="M62.3548133,65.4813459 C62.3548133,83.2777205 48.5870132,97.7023256 31.6078456,97.7023256 C14.626703,97.7023256 0.858902925,83.2777205 0.858902925,65.4813459 C0.858902925,47.6849712 14.626703,33.2624449 31.6078456,33.2624449 C48.5870132,33.2624449 62.3548133,47.6849712 62.3548133,65.4813459 Z" id="Stroke-13" stroke="#15537D" stroke-width="3"></path>
                    <text id="£" font-family="Lato-Regular, Lato" font-size="50" font-weight="normal" fill="#F5A623">
                        <tspan x="17.0099095" y="81.2813953">£</tspan>
                    </text>
                </g>
            </g>
        </g>
    </g>
</svg>